{
	"asset":{
		"generator":"Khronos glTF Blender I/O v3.6.27",
		"version":"2.0"
	},
	"scene":0,
	"scenes":[
		{
			"name":"Scene",
			"nodes":[
				0
			]
		}
	],
	"nodes":[
		{
			"mesh":0,
			"name":"Folder Star"
		}
	],
	"materials":[
		{
			"doubleSided":true,
			"name":"Color - Yellow",
			"pbrMetallicRoughness":{
				"baseColorFactor":[
					0.5753005743026733,
					0.5479775071144104,
					0.11576014012098312,
					1
				],
				"metallicFactor":0,
				"roughnessFactor":0.5
			}
		},
		{
			"doubleSided":true,
			"name":"Clay White",
			"pbrMetallicRoughness":{
				"baseColorFactor":[
					0.7991032600402832,
					0.7991029024124146,
					0.7991030216217041,
					1
				],
				"metallicFactor":0,
				"roughnessFactor":0.6000000238418579
			}
		},
		{
			"doubleSided":true,
			"name":"Silver",
			"pbrMetallicRoughness":{
				"baseColorFactor":[
					0.6847962737083435,
					0.6847962737083435,
					0.6847962737083435,
					1
				],
				"roughnessFactor":0.5
			}
		}
	],
	"meshes":[
		{
			"name":"Plane.011",
			"primitives":[
				{
					"attributes":{
						"POSITION":0,
						"NORMAL":1,
						"TEXCOORD_0":2
					},
					"indices":3,
					"material":0
				},
				{
					"attributes":{
						"POSITION":4,
						"NORMAL":5,
						"TEXCOORD_0":6
					},
					"indices":7,
					"material":1
				},
				{
					"attributes":{
						"POSITION":8,
						"NORMAL":9,
						"TEXCOORD_0":10
					},
					"indices":11,
					"material":2
				}
			]
		}
	],
	"accessors":[
		{
			"bufferView":0,
			"componentType":5126,
			"count":25131,
			"max":[
				0.9548708200454712,
				0.8344042301177979,
				0.3653324246406555
			],
			"min":[
				-0.9456153512001038,
				-0.8116326928138733,
				-0.10158814489841461
			],
			"type":"VEC3"
		},
		{
			"bufferView":1,
			"componentType":5126,
			"count":25131,
			"type":"VEC3"
		},
		{
			"bufferView":2,
			"componentType":5126,
			"count":25131,
			"type":"VEC2"
		},
		{
			"bufferView":3,
			"componentType":5123,
			"count":145920,
			"type":"SCALAR"
		},
		{
			"bufferView":4,
			"componentType":5126,
			"count":23452,
			"max":[
				0.9185283184051514,
				0.528236448764801,
				0.3017317056655884
			],
			"min":[
				-0.9119017720222473,
				-0.6914463043212891,
				0.03640104457736015
			],
			"type":"VEC3"
		},
		{
			"bufferView":5,
			"componentType":5126,
			"count":23452,
			"type":"VEC3"
		},
		{
			"bufferView":6,
			"componentType":5126,
			"count":23452,
			"type":"VEC2"
		},
		{
			"bufferView":7,
			"componentType":5123,
			"count":128256,
			"type":"SCALAR"
		},
		{
			"bufferView":8,
			"componentType":5126,
			"count":7753,
			"max":[
				0.2882438600063324,
				0.08069634437561035,
				0.4689182937145233
			],
			"min":[
				-0.2737303376197815,
				-0.4550100266933441,
				0.30477964878082275
			],
			"type":"VEC3"
		},
		{
			"bufferView":9,
			"componentType":5126,
			"count":7753,
			"type":"VEC3"
		},
		{
			"bufferView":10,
			"componentType":5126,
			"count":7753,
			"type":"VEC2"
		},
		{
			"bufferView":11,
			"componentType":5123,
			"count":38400,
			"type":"SCALAR"
		}
	],
	"bufferViews":[
		{
			"buffer":0,
			"byteLength":301572,
			"byteOffset":0,
			"target":34962
		},
		{
			"buffer":0,
			"byteLength":301572,
			"byteOffset":301572,
			"target":34962
		},
		{
			"buffer":0,
			"byteLength":201048,
			"byteOffset":603144,
			"target":34962
		},
		{
			"buffer":0,
			"byteLength":291840,
			"byteOffset":804192,
			"target":34963
		},
		{
			"buffer":0,
			"byteLength":281424,
			"byteOffset":1096032,
			"target":34962
		},
		{
			"buffer":0,
			"byteLength":281424,
			"byteOffset":1377456,
			"target":34962
		},
		{
			"buffer":0,
			"byteLength":187616,
			"byteOffset":1658880,
			"target":34962
		},
		{
			"buffer":0,
			"byteLength":256512,
			"byteOffset":1846496,
			"target":34963
		},
		{
			"buffer":0,
			"byteLength":93036,
			"byteOffset":2103008,
			"target":34962
		},
		{
			"buffer":0,
			"byteLength":93036,
			"byteOffset":2196044,
			"target":34962
		},
		{
			"buffer":0,
			"byteLength":62024,
			"byteOffset":2289080,
			"target":34962
		},
		{
			"buffer":0,
			"byteLength":76800,
			"byteOffset":2351104,
			"target":34963
		}
	],
	"buffers":[
		{
			"byteLength":2427904,
			"uri":"data:application/octet-stream;base64,"
		}
	]
}
