{
	"asset":{
		"generator":"Khronos glTF Blender I/O v3.6.27",
		"version":"2.0"
	},
	"scene":0,
	"scenes":[
		{
			"name":"Scene",
			"nodes":[
				0
			]
		}
	],
	"nodes":[
		{
			"mesh":0,
			"name":"Curve.001",
			"rotation":[
				0,
				0.7071068286895752,
				0,
				0.7071068286895752
			],
			"scale":[
				29.370378494262695,
				29.370378494262695,
				29.370378494262695
			]
		}
	],
	"materials":[
		{
			"doubleSided":true,
			"name":"SVGMat.001",
			"pbrMetallicRoughness":{
				"baseColorFactor":[
					0,
					0,
					0,
					1
				],
				"metallicFactor":0,
				"roughnessFactor":0.4000000059604645
			}
		}
	],
	"meshes":[
		{
			"name":"Curve.008",
			"primitives":[
				{
					"attributes":{
						"POSITION":0,
						"TEXCOORD_0":1
					},
					"indices":2,
					"material":0
				}
			]
		}
	],
	"accessors":[
		{
			"bufferView":0,
			"componentType":5126,
			"count":3384,
			"max":[
				0.05535462126135826,
				0.016896508634090424,
				0.004421696998178959
			],
			"min":[
				-0.06709672510623932,
				-0.009022323414683342,
				-0.004441620782017708
			],
			"type":"VEC3"
		},
		{
			"bufferView":1,
			"componentType":5126,
			"count":3384,
			"type":"VEC2"
		},
		{
			"bufferView":2,
			"componentType":5123,
			"count":20244,
			"type":"SCALAR"
		}
	],
	"bufferViews":[
		{
			"buffer":0,
			"byteLength":40608,
			"byteOffset":0,
			"target":34962
		},
		{
			"buffer":0,
			"byteLength":27072,
			"byteOffset":40608,
			"target":34962
		},
		{
			"buffer":0,
			"byteLength":40488,
			"byteOffset":67680,
			"target":34963
		}
	],
	"buffers":[
		{
			"byteLength":108168,
			"uri":"data:application/octet-stream;base64,"
		}
	]
}
