{
	"asset":{
		"generator":"Khronos glTF Blender I/O v3.6.27",
		"version":"2.0"
	},
	"scene":0,
	"scenes":[
		{
			"name":"Scene",
			"nodes":[
				0
			]
		}
	],
	"nodes":[
		{
			"mesh":0,
			"name":"ElePHPant3",
			"rotation":[
				0.7071068286895752,
				0,
				0,
				0.7071068286895752
			],
			"scale":[
				0.26773518323898315,
				0.26773518323898315,
				0.26773518323898315
			]
		}
	],
	"materials":[
		{
			"doubleSided":true,
			"name":"(null)",
			"pbrMetallicRoughness":{
				"baseColorFactor":[
					0.21718829870224,
					0.2220669388771057,
					0.3331785500049591,
					1
				],
				"metallicFactor":0.6454545259475708,
				"roughnessFactor":0.6954545378684998
			}
		}
	],
	"meshes":[
		{
			"name":"ElePHPant3",
			"primitives":[
				{
					"attributes":{
						"POSITION":0
					},
					"indices":1,
					"material":0
				}
			]
		}
	],
	"accessors":[
		{
			"bufferView":0,
			"componentType":5126,
			"count":4564,
			"max":[
				5.88564920425415,
				3.831097364425659,
				3.818162441253662
			],
			"min":[
				-5.3180108070373535,
				-3.7079145908355713,
				-3.6946516036987305
			],
			"type":"VEC3"
		},
		{
			"bufferView":1,
			"componentType":5123,
			"count":27372,
			"type":"SCALAR"
		}
	],
	"bufferViews":[
		{
			"buffer":0,
			"byteLength":54768,
			"byteOffset":0,
			"target":34962
		},
		{
			"buffer":0,
			"byteLength":54744,
			"byteOffset":54768,
			"target":34963
		}
	],
	"buffers":[
		{
			"byteLength":109512,
			"uri":"data:application/octet-stream;base64,"
		}
	]
}
