{
	"asset":{
		"generator":"Khronos glTF Blender I/O v3.6.27",
		"version":"2.0"
	},
	"scene":0,
	"scenes":[
		{
			"name":"Scene",
			"nodes":[
				0
			]
		}
	],
	"nodes":[
		{
			"mesh":0,
			"name":"React-Logo",
			"rotation":[
				0.5000000596046448,
				-0.4999999403953552,
				-0.4999999403953552,
				0.5000000596046448
			],
			"scale":[
				0.242415189743042,
				0.3263913094997406,
				0.242415189743042
			],
			"translation":[
				0,
				0.07935468852519989,
				0.18101565539836884
			]
		}
	],
	"materials":[
		{
			"doubleSided":true,
			"emissiveFactor":[
				0.023907459172916035,
				0.14022022239436893,
				0.19293716206411204
			],
			"name":"Material.002",
			"pbrMetallicRoughness":{
				"baseColorFactor":[
					0.1195373386144638,
					0.7011013627052307,
					0.9646861553192139,
					1
				],
				"metallicFactor":0,
				"roughnessFactor":0.5
			}
		}
	],
	"meshes":[
		{
			"name":"React-Logo",
			"primitives":[
				{
					"attributes":{
						"POSITION":0,
						"TEXCOORD_0":1
					},
					"indices":2,
					"material":0
				}
			]
		}
	],
	"accessors":[
		{
			"bufferView":0,
			"componentType":5126,
			"count":14329,
			"max":[
				5.0055975914001465,
				0.4154217541217804,
				5.576054573059082
			],
			"min":[
				-4.984510898590088,
				0.038673363626003265,
				-5.576054573059082
			],
			"type":"VEC3"
		},
		{
			"bufferView":1,
			"componentType":5126,
			"count":14329,
			"type":"VEC2"
		},
		{
			"bufferView":2,
			"componentType":5123,
			"count":58944,
			"type":"SCALAR"
		}
	],
	"bufferViews":[
		{
			"buffer":0,
			"byteLength":171948,
			"byteOffset":0,
			"target":34962
		},
		{
			"buffer":0,
			"byteLength":114632,
			"byteOffset":171948,
			"target":34962
		},
		{
			"buffer":0,
			"byteLength":117888,
			"byteOffset":286580,
			"target":34963
		}
	],
	"buffers":[
		{
			"byteLength":404468,
			"uri":"data:application/octet-stream;base64,"
		}
	]
}
